<svg xmlns="http://www.w3.org/2000/svg" viewBox="0 0 32 32">
  <defs>
    <linearGradient id="accent" x1="0%" y1="0%" x2="100%" y2="100%">
      <stop offset="0%" style="stop-color:#22d3ee"/>
      <stop offset="100%" style="stop-color:#06b6d4"/>
    </linearGradient>
  </defs>
  <!-- Dark background with rounded corners -->
  <rect width="32" height="32" rx="6" fill="#0a0a0b"/>
  <!-- Accent dot (status indicator) -->
  <circle cx="6" cy="6" r="2.5" fill="url(#accent)"/>
  <!-- Stylized "B" letterform -->
  <path d="M10 8h6c2.5 0 4.5 1.5 4.5 4 0 1.5-.8 2.7-2 3.3 1.5.5 2.5 2 2.5 3.7 0 2.5-2 4-4.5 4H10V8zm3 5.5h2.5c1 0 1.5-.6 1.5-1.5s-.5-1.5-1.5-1.5H13v3zm0 6h3c1 0 1.5-.6 1.5-1.5s-.5-1.5-1.5-1.5h-3v3z" fill="#f4f4f5"/>
</svg>
